{
    "asset" : {
        "generator" : "Khronos glTF Blender I/O v1.0.5",
        "version" : "2.0"
    },
    "extensionsUsed" : [
        "KHR_texture_transform"
    ],
    "extensionsRequired" : [
        "KHR_texture_transform"
    ],
    "scene" : 0,
    "scenes" : [
        {
            "name" : "Scene",
            "nodes" : [
                0,
                1,
                2,
                3,
                4,
                5,
                6,
                7,
                8,
                9
            ]
        }
    ],
    "nodes" : [
        {
            "mesh" : 0,
            "name" : "col",
            "rotation" : [
                0.06878917664289474,
                0,
                0,
                0.9976311922073364
            ],
            "scale" : [
                0.9659292101860046,
                1.9975653886795044,
                0.7788452506065369
            ],
            "translation" : [
                0,
                0.7795296907424927,
                -0.19220781326293945
            ]
        },
        {
            "mesh" : 1,
            "name" : "cou",
            "rotation" : [
                0.1477780044078827,
                0,
                0,
                0.989020586013794
            ],
            "scale" : [
                0.22502174973487854,
                0.4645460247993469,
                0.2413269430398941
            ],
            "translation" : [
                0.006416630931198597,
                0.9155977368354797,
                -0.1574891209602356
            ]
        },
        {
            "mesh" : 2,
            "name" : "cravate01.001",
            "rotation" : [
                0.054958123713731766,
                0,
                0,
                0.9984886646270752
            ],
            "scale" : [
                -0.15518957376480103,
                -0.13512317836284637,
                -0.11526400595903397
            ],
            "translation" : [
                0.0051594749093055725,
                0.5983328819274902,
                -0.0007994556799530983
            ]
        },
        {
            "mesh" : 3,
            "name" : "cravate02.001",
            "rotation" : [
                0.9968279004096985,
                0,
                0,
                0.07958707958459854
            ],
            "scale" : [
                -0.11643706262111664,
                -0.2647427022457123,
                -0.08636859059333801
            ],
            "translation" : [
                0.010240813717246056,
                0.204044371843338,
                0.02563500590622425
            ]
        },
        {
            "name" : "lunettes",
            "rotation" : [
                0.7071067690849304,
                0,
                0,
                0.7071067690849304
            ],
            "translation" : [
                0,
                0,
                0.3645012676715851
            ]
        },
        {
            "mesh" : 4,
            "name" : "oeilV3",
            "rotation" : [
                0.7071067690849304,
                0,
                0,
                0.7071067690849304
            ],
            "scale" : [
                0.10926744341850281,
                0.10926744341850281,
                0.10926744341850281
            ],
            "translation" : [
                0,
                1.5896880626678467,
                0
            ]
        },
        {
            "mesh" : 5,
            "name" : "sourcils",
            "scale" : [
                0.13479083776474,
                0.13479083776474,
                0.13479083776474
            ]
        },
        {
            "mesh" : 6,
            "name" : "Sphere",
            "rotation" : [
                0,
                -1,
                0,
                4.887620548288396e-07
            ],
            "scale" : [
                0.42526310682296753,
                0.4040062427520752,
                0.4040062427520752
            ],
            "translation" : [
                0,
                2.02213454246521,
                -0.09838277846574783
            ]
        },
        {
            "mesh" : 7,
            "name" : "torse",
            "scale" : [
                0.8689357042312622,
                0.8689357042312622,
                0.6467058658599854
            ],
            "translation" : [
                0,
                0.035879384726285934,
                -0.3123677670955658
            ]
        },
        {
            "mesh" : 8,
            "name" : "veuch-003-sauv",
            "scale" : [
                0.5864164233207703,
                0.5864164233207703,
                0.5864164233207703
            ],
            "translation" : [
                0,
                1.9344176054000854,
                0
            ]
        }
    ],
    "materials" : [
        {
            "doubleSided" : true,
            "name" : "chemise",
            "pbrMetallicRoughness" : {
                "baseColorFactor" : [
                    0.8000000715255737,
                    0.5099262595176697,
                    0.12166057527065277,
                    1
                ],
                "metallicFactor" : 0,
                "roughnessFactor" : 0.3799999952316284
            }
        },
        {
            "doubleSided" : true,
            "name" : "peau",
            "pbrMetallicRoughness" : {
                "baseColorFactor" : [
                    0.8000000715255737,
                    0.411846399307251,
                    0.17543374001979828,
                    1
                ],
                "metallicFactor" : 0,
                "roughnessFactor" : 0.41999998688697815
            }
        },
        {
            "doubleSided" : true,
            "name" : "cravate.001",
            "pbrMetallicRoughness" : {
                "baseColorTexture" : {
                    "extensions" : {
                        "KHR_texture_transform" : {
                            "offset" : [
                                -2.8794158040176114,
                                0.15799962733166706
                            ],
                            "rotation" : 1.2863075733184814,
                            "scale" : [
                                3,
                                3
                            ]
                        }
                    },
                    "index" : 0,
                    "texCoord" : 0
                },
                "metallicFactor" : 0
            }
        },
        {
            "doubleSided" : true,
            "name" : "pupille",
            "pbrMetallicRoughness" : {
                "baseColorFactor" : [
                    0.07284526526927948,
                    0.18051572144031525,
                    0.17295688390731812,
                    1
                ],
                "metallicFactor" : 0,
                "roughnessFactor" : 0.12571413815021515
            }
        },
        {
            "doubleSided" : true,
            "name" : "cheveux",
            "pbrMetallicRoughness" : {
                "baseColorFactor" : [
                    0.14259938895702362,
                    0.04315326362848282,
                    0.010559647344052792,
                    1
                ],
                "metallicFactor" : 0,
                "roughnessFactor" : 0.3799999952316284
            }
        }
    ],
    "meshes" : [
        {
            "name" : "Torus",
            "primitives" : [
                {
                    "attributes" : {
                        "POSITION" : 0,
                        "NORMAL" : 1,
                        "TEXCOORD_0" : 2
                    },
                    "indices" : 3,
                    "material" : 0
                }
            ]
        },
        {
            "name" : "Cylinder",
            "primitives" : [
                {
                    "attributes" : {
                        "POSITION" : 4,
                        "NORMAL" : 5,
                        "TEXCOORD_0" : 6
                    },
                    "indices" : 7,
                    "material" : 1
                }
            ]
        },
        {
            "name" : "Cube.004",
            "primitives" : [
                {
                    "attributes" : {
                        "POSITION" : 8,
                        "NORMAL" : 9,
                        "TEXCOORD_0" : 10
                    },
                    "indices" : 11,
                    "material" : 2
                }
            ]
        },
        {
            "name" : "Cube.000",
            "primitives" : [
                {
                    "attributes" : {
                        "POSITION" : 12,
                        "NORMAL" : 13,
                        "TEXCOORD_0" : 14
                    },
                    "indices" : 15,
                    "material" : 2
                }
            ]
        },
        {
            "name" : "Sphere.003",
            "primitives" : [
                {
                    "attributes" : {
                        "POSITION" : 16,
                        "NORMAL" : 17,
                        "TEXCOORD_0" : 18
                    },
                    "indices" : 19,
                    "material" : 3
                },
                {
                    "attributes" : {
                        "POSITION" : 20,
                        "NORMAL" : 21,
                        "TEXCOORD_0" : 22
                    },
                    "indices" : 23,
                    "material" : 3
                }
            ]
        },
        {
            "name" : "Cube.001",
            "primitives" : [
                {
                    "attributes" : {
                        "POSITION" : 24,
                        "NORMAL" : 25,
                        "TEXCOORD_0" : 26
                    },
                    "indices" : 27,
                    "material" : 4
                }
            ]
        },
        {
            "name" : "Sphere",
            "primitives" : [
                {
                    "attributes" : {
                        "POSITION" : 28,
                        "NORMAL" : 29,
                        "TEXCOORD_0" : 30
                    },
                    "indices" : 31,
                    "material" : 1
                }
            ]
        },
        {
            "name" : "Sphere.005",
            "primitives" : [
                {
                    "attributes" : {
                        "POSITION" : 32,
                        "NORMAL" : 33,
                        "TEXCOORD_0" : 34
                    },
                    "indices" : 35,
                    "material" : 0
                }
            ]
        },
        {
            "name" : "Sphere.006",
            "primitives" : [
                {
                    "attributes" : {
                        "POSITION" : 36,
                        "NORMAL" : 37,
                        "TEXCOORD_0" : 38
                    },
                    "indices" : 39,
                    "material" : 4
                }
            ]
        }
    ],
    "textures" : [
        {
            "source" : 0
        }
    ],
    "images" : [
        {
            "bufferView" : 12,
            "mimeType" : "image/png",
            "name" : "texture-cravate01"
        }
    ],
    "accessors" : [
        {
            "bufferView" : 0,
            "componentType" : 5126,
            "count" : 208,
            "max" : [
                0.39763063192367554,
                0.1123211681842804,
                0.42271125316619873
            ],
            "min" : [
                -0.39763063192367554,
                -0.22616241872310638,
                -0.38804522156715393
            ],
            "type" : "VEC3"
        },
        {
            "bufferView" : 1,
            "componentType" : 5126,
            "count" : 208,
            "type" : "VEC3"
        },
        {
            "bufferView" : 2,
            "componentType" : 5126,
            "count" : 208,
            "type" : "VEC2"
        },
        {
            "bufferView" : 3,
            "componentType" : 5123,
            "count" : 900,
            "type" : "SCALAR"
        },
        {
            "bufferView" : 4,
            "componentType" : 5126,
            "count" : 157,
            "max" : [
                1.2419373989105225,
                0.8411064743995667,
                1.2769211530685425
            ],
            "min" : [
                -1.241937279701233,
                -1.2546590566635132,
                -0.5944262742996216
            ],
            "type" : "VEC3"
        },
        {
            "bufferView" : 5,
            "componentType" : 5126,
            "count" : 157,
            "type" : "VEC3"
        },
        {
            "bufferView" : 6,
            "componentType" : 5126,
            "count" : 157,
            "type" : "VEC2"
        },
        {
            "bufferView" : 7,
            "componentType" : 5123,
            "count" : 420,
            "type" : "SCALAR"
        },
        {
            "bufferView" : 8,
            "componentType" : 5126,
            "count" : 232,
            "max" : [
                0.8830687403678894,
                1.0713227987289429,
                0.88388592004776
            ],
            "min" : [
                -0.8844534754753113,
                -0.9954965710639954,
                -0.880891740322113
            ],
            "type" : "VEC3"
        },
        {
            "bufferView" : 9,
            "componentType" : 5126,
            "count" : 232,
            "type" : "VEC3"
        },
        {
            "bufferView" : 10,
            "componentType" : 5126,
            "count" : 232,
            "type" : "VEC2"
        },
        {
            "bufferView" : 11,
            "componentType" : 5123,
            "count" : 720,
            "type" : "SCALAR"
        },
        {
            "bufferView" : 13,
            "componentType" : 5126,
            "count" : 114,
            "max" : [
                1.4217408895492554,
                1.0713227987289429,
                1.4142988920211792
            ],
            "min" : [
                -1.3507331609725952,
                -0.7705278992652893,
                -1.3005777597427368
            ],
            "type" : "VEC3"
        },
        {
            "bufferView" : 14,
            "componentType" : 5126,
            "count" : 114,
            "type" : "VEC3"
        },
        {
            "bufferView" : 15,
            "componentType" : 5126,
            "count" : 114,
            "type" : "VEC2"
        },
        {
            "bufferView" : 16,
            "componentType" : 5123,
            "count" : 504,
            "type" : "SCALAR"
        },
        {
            "bufferView" : 17,
            "componentType" : 5126,
            "count" : 104,
            "max" : [
                -1.4147861003875732,
                2.5845184326171875,
                0.8336344361305237
            ],
            "min" : [
                -2.668530225753784,
                1.334043025970459,
                -0.44144898653030396
            ],
            "type" : "VEC3"
        },
        {
            "bufferView" : 18,
            "componentType" : 5126,
            "count" : 104,
            "type" : "VEC3"
        },
        {
            "bufferView" : 19,
            "componentType" : 5126,
            "count" : 104,
            "type" : "VEC2"
        },
        {
            "bufferView" : 20,
            "componentType" : 5123,
            "count" : 468,
            "type" : "SCALAR"
        },
        {
            "bufferView" : 21,
            "componentType" : 5126,
            "count" : 26,
            "max" : [
                -1.9090734720230103,
                2.58778715133667,
                0.4400692582130432
            ],
            "min" : [
                -2.3888604640960693,
                2.4956209659576416,
                -0.047884002327919006
            ],
            "type" : "VEC3"
        },
        {
            "bufferView" : 22,
            "componentType" : 5126,
            "count" : 26,
            "type" : "VEC3"
        },
        {
            "bufferView" : 23,
            "componentType" : 5126,
            "count" : 26,
            "type" : "VEC2"
        },
        {
            "bufferView" : 24,
            "componentType" : 5123,
            "count" : 36,
            "type" : "SCALAR"
        },
        {
            "bufferView" : 25,
            "componentType" : 5126,
            "count" : 74,
            "max" : [
                -0.6906151175498962,
                12.525876998901367,
                2.8619384765625
            ],
            "min" : [
                -2.5871469974517822,
                11.691991806030273,
                1.3555073738098145
            ],
            "type" : "VEC3"
        },
        {
            "bufferView" : 26,
            "componentType" : 5126,
            "count" : 74,
            "type" : "VEC3"
        },
        {
            "bufferView" : 27,
            "componentType" : 5126,
            "count" : 74,
            "type" : "VEC2"
        },
        {
            "bufferView" : 28,
            "componentType" : 5123,
            "count" : 228,
            "type" : "SCALAR"
        },
        {
            "bufferView" : 29,
            "componentType" : 5126,
            "count" : 364,
            "max" : [
                1.3493196964263916,
                0.867883026599884,
                1.323394536972046
            ],
            "min" : [
                0,
                -2.6323487758636475,
                -1.4480892419815063
            ],
            "type" : "VEC3"
        },
        {
            "bufferView" : 30,
            "componentType" : 5126,
            "count" : 364,
            "type" : "VEC3"
        },
        {
            "bufferView" : 31,
            "componentType" : 5126,
            "count" : 364,
            "type" : "VEC2"
        },
        {
            "bufferView" : 32,
            "componentType" : 5123,
            "count" : 1878,
            "type" : "SCALAR"
        },
        {
            "bufferView" : 33,
            "componentType" : 5126,
            "count" : 93,
            "max" : [
                1.0000001192092896,
                0.9399880170822144,
                0.7347328662872314
            ],
            "min" : [
                -0.9999995231628418,
                -0.03054279088973999,
                -0.9827186465263367
            ],
            "type" : "VEC3"
        },
        {
            "bufferView" : 34,
            "componentType" : 5126,
            "count" : 93,
            "type" : "VEC3"
        },
        {
            "bufferView" : 35,
            "componentType" : 5126,
            "count" : 93,
            "type" : "VEC2"
        },
        {
            "bufferView" : 36,
            "componentType" : 5123,
            "count" : 306,
            "type" : "SCALAR"
        },
        {
            "bufferView" : 37,
            "componentType" : 5126,
            "count" : 80,
            "max" : [
                0,
                0.9361827969551086,
                0.8263570666313171
            ],
            "min" : [
                -1.062751293182373,
                -1.1172131299972534,
                -1.3699876070022583
            ],
            "type" : "VEC3"
        },
        {
            "bufferView" : 38,
            "componentType" : 5126,
            "count" : 80,
            "type" : "VEC3"
        },
        {
            "bufferView" : 39,
            "componentType" : 5126,
            "count" : 80,
            "type" : "VEC2"
        },
        {
            "bufferView" : 40,
            "componentType" : 5123,
            "count" : 279,
            "type" : "SCALAR"
        }
    ],
    "bufferViews" : [
        {
            "buffer" : 0,
            "byteLength" : 2496,
            "byteOffset" : 0
        },
        {
            "buffer" : 0,
            "byteLength" : 2496,
            "byteOffset" : 2496
        },
        {
            "buffer" : 0,
            "byteLength" : 1664,
            "byteOffset" : 4992
        },
        {
            "buffer" : 0,
            "byteLength" : 1800,
            "byteOffset" : 6656
        },
        {
            "buffer" : 0,
            "byteLength" : 1884,
            "byteOffset" : 8456
        },
        {
            "buffer" : 0,
            "byteLength" : 1884,
            "byteOffset" : 10340
        },
        {
            "buffer" : 0,
            "byteLength" : 1256,
            "byteOffset" : 12224
        },
        {
            "buffer" : 0,
            "byteLength" : 840,
            "byteOffset" : 13480
        },
        {
            "buffer" : 0,
            "byteLength" : 2784,
            "byteOffset" : 14320
        },
        {
            "buffer" : 0,
            "byteLength" : 2784,
            "byteOffset" : 17104
        },
        {
            "buffer" : 0,
            "byteLength" : 1856,
            "byteOffset" : 19888
        },
        {
            "buffer" : 0,
            "byteLength" : 1440,
            "byteOffset" : 21744
        },
        {
            "buffer" : 0,
            "byteLength" : 440809,
            "byteOffset" : 23184
        },
        {
            "buffer" : 0,
            "byteLength" : 1368,
            "byteOffset" : 463996
        },
        {
            "buffer" : 0,
            "byteLength" : 1368,
            "byteOffset" : 465364
        },
        {
            "buffer" : 0,
            "byteLength" : 912,
            "byteOffset" : 466732
        },
        {
            "buffer" : 0,
            "byteLength" : 1008,
            "byteOffset" : 467644
        },
        {
            "buffer" : 0,
            "byteLength" : 1248,
            "byteOffset" : 468652
        },
        {
            "buffer" : 0,
            "byteLength" : 1248,
            "byteOffset" : 469900
        },
        {
            "buffer" : 0,
            "byteLength" : 832,
            "byteOffset" : 471148
        },
        {
            "buffer" : 0,
            "byteLength" : 936,
            "byteOffset" : 471980
        },
        {
            "buffer" : 0,
            "byteLength" : 312,
            "byteOffset" : 472916
        },
        {
            "buffer" : 0,
            "byteLength" : 312,
            "byteOffset" : 473228
        },
        {
            "buffer" : 0,
            "byteLength" : 208,
            "byteOffset" : 473540
        },
        {
            "buffer" : 0,
            "byteLength" : 72,
            "byteOffset" : 473748
        },
        {
            "buffer" : 0,
            "byteLength" : 888,
            "byteOffset" : 473820
        },
        {
            "buffer" : 0,
            "byteLength" : 888,
            "byteOffset" : 474708
        },
        {
            "buffer" : 0,
            "byteLength" : 592,
            "byteOffset" : 475596
        },
        {
            "buffer" : 0,
            "byteLength" : 456,
            "byteOffset" : 476188
        },
        {
            "buffer" : 0,
            "byteLength" : 4368,
            "byteOffset" : 476644
        },
        {
            "buffer" : 0,
            "byteLength" : 4368,
            "byteOffset" : 481012
        },
        {
            "buffer" : 0,
            "byteLength" : 2912,
            "byteOffset" : 485380
        },
        {
            "buffer" : 0,
            "byteLength" : 3756,
            "byteOffset" : 488292
        },
        {
            "buffer" : 0,
            "byteLength" : 1116,
            "byteOffset" : 492048
        },
        {
            "buffer" : 0,
            "byteLength" : 1116,
            "byteOffset" : 493164
        },
        {
            "buffer" : 0,
            "byteLength" : 744,
            "byteOffset" : 494280
        },
        {
            "buffer" : 0,
            "byteLength" : 612,
            "byteOffset" : 495024
        },
        {
            "buffer" : 0,
            "byteLength" : 960,
            "byteOffset" : 495636
        },
        {
            "buffer" : 0,
            "byteLength" : 960,
            "byteOffset" : 496596
        },
        {
            "buffer" : 0,
            "byteLength" : 640,
            "byteOffset" : 497556
        },
        {
            "buffer" : 0,
            "byteLength" : 558,
            "byteOffset" : 498196
        }
    ],
    "buffers" : [
        {
            "byteLength" : 498756,
            "uri" : "data:application/octet-stream;base64,"
        }
    ]
}
